<svg width="25" height="25" viewBox="0 0 25 25" fill="none" xmlns="http://www.w3.org/2000/svg">
<path d="M10.6826 9.13361C10.6729 9.42893 10.7213 9.72327 10.8253 9.99984C10.9293 10.2764 11.0868 10.5298 11.2887 10.7455C11.4906 10.9612 11.733 11.1351 12.0021 11.2571C12.2712 11.3792 12.5617 11.447 12.857 11.4568C13.1523 11.4665 13.4467 11.4181 13.7232 11.3141C13.9998 11.2101 14.2532 11.0526 14.4689 10.8507C14.6846 10.6488 14.8585 10.4064 14.9805 10.1373C15.1026 9.86821 15.1704 9.57772 15.1802 9.2824C15.1899 8.98709 15.1414 8.69274 15.0375 8.41617C14.9335 8.1396 14.776 7.88622 14.5741 7.67049C14.3722 7.45477 14.1298 7.28092 13.8607 7.15889C13.5916 7.03685 13.3011 6.96901 13.0058 6.95924C12.7105 6.94947 12.4161 6.99796 12.1396 7.10195C11.863 7.20593 11.6096 7.36337 11.3939 7.56528C11.1782 7.76719 11.0043 8.00961 10.8823 8.27871C10.7602 8.5478 10.6924 8.8383 10.6826 9.13361Z" stroke="#0071BC" stroke-width="1.5" stroke-linecap="round" stroke-linejoin="round"/>
<path d="M12.9314 14.458C11.9681 14.458 11.0263 14.743 10.2253 15.277C9.42435 15.811 8.80005 16.57 8.4314 17.458" stroke="#0071BC" stroke-width="1.5" stroke-linecap="round" stroke-linejoin="round"/>
<path d="M19.6814 16.208C20.0956 16.208 20.4314 15.8722 20.4314 15.458C20.4314 15.0438 20.0956 14.708 19.6814 14.708V16.208ZM15.6814 14.708C15.2672 14.708 14.9314 15.0438 14.9314 15.458C14.9314 15.8722 15.2672 16.208 15.6814 16.208V14.708ZM19.6814 14.708H15.6814V16.208H19.6814V14.708Z" fill="#0071BC"/>
<path d="M16.9314 17.458C16.9314 17.8722 17.2672 18.208 17.6814 18.208C18.0956 18.208 18.4314 17.8722 18.4314 17.458H16.9314ZM18.4314 13.458C18.4314 13.0438 18.0956 12.708 17.6814 12.708C17.2672 12.708 16.9314 13.0438 16.9314 13.458H18.4314ZM18.4314 17.458V13.458H16.9314V17.458H18.4314Z" fill="#0071BC"/>
</svg>
