<svg width="25" height="25" viewBox="0 0 25 25" fill="none" xmlns="http://www.w3.org/2000/svg">
<path d="M16.451 12.8401C16.8653 12.8401 17.201 12.5043 17.201 12.0901C17.201 11.6759 16.8653 11.3401 16.451 11.3401V12.8401ZM9.45105 11.3401C9.03684 11.3401 8.70105 11.6759 8.70105 12.0901C8.70105 12.5043 9.03684 12.8401 9.45105 12.8401V11.3401ZM16.451 11.3401H9.45105V12.8401H16.451V11.3401Z" fill="#0071BC"/>
<path d="M12.201 15.5901C12.201 16.0043 12.5368 16.3401 12.951 16.3401C13.3653 16.3401 13.701 16.0043 13.701 15.5901H12.201ZM13.701 8.59009C13.701 8.17587 13.3653 7.84009 12.951 7.84009C12.5368 7.84009 12.201 8.17587 12.201 8.59009H13.701ZM13.701 15.5901V8.59009H12.201V15.5901H13.701Z" fill="#0071BC"/>
</svg>
