<svg width="21" height="21" viewBox="0 0 21 21" fill="none" xmlns="http://www.w3.org/2000/svg">
<path fill-rule="evenodd" clip-rule="evenodd" d="M14.7761 8.92798C14.1824 8.92798 13.702 9.4084 13.702 10.0021C13.702 10.5958 14.1843 11.0762 14.7761 11.0762C15.3678 11.0762 15.8482 10.5958 15.8502 10.0021C15.8502 9.4084 15.3678 8.92798 14.7761 8.92798ZM6.18337 8.92808C5.58967 8.92808 5.10925 9.4085 5.10925 10.0022C5.10925 10.5959 5.59163 11.0763 6.18337 11.0763C6.77706 11.0763 7.25748 10.5959 7.25748 10.0022C7.25748 9.4085 6.77706 8.92808 6.18337 8.92808ZM9.40559 10.0021C9.40559 9.4084 9.88601 8.92798 10.4797 8.92798C11.0714 8.92798 11.5538 9.4084 11.5538 10.0021C11.5538 10.5958 11.0714 11.0762 10.4797 11.0762C9.88796 11.0762 9.40559 10.5958 9.40559 10.0021Z" fill="black"/>
<path fill-rule="evenodd" clip-rule="evenodd" d="M17.5318 3.35227C18.4555 4.21156 19.1801 5.21342 19.6859 6.32854C20.2112 7.48859 20.4788 8.72089 20.4768 9.99225C20.4768 11.2636 20.2112 12.494 19.6839 13.654C19.1762 14.7711 18.4516 15.771 17.5298 16.6303C16.6119 17.4857 15.5437 18.1575 14.3544 18.6262C13.126 19.1085 11.8214 19.3546 10.4778 19.3546C9.40953 19.3546 8.3608 19.1984 7.357 18.8898L4.46079 20.5361C4.35338 20.5967 4.2323 20.6279 4.11317 20.6279C4.00576 20.6279 3.89639 20.6025 3.7968 20.5518C3.58588 20.4463 3.44331 20.2412 3.41597 20.0069L2.96485 16.1674C1.36149 14.4567 0.480713 12.2733 0.480713 9.9903C0.480713 8.72089 0.748265 7.48859 1.2736 6.32854C1.78137 5.21147 2.50591 4.21156 3.42769 3.35227C4.34557 2.49689 5.41383 1.82508 6.60316 1.35637C7.83156 0.873999 9.13612 0.62793 10.4797 0.62793C11.8234 0.62793 13.1279 0.873999 14.3563 1.35637C15.5456 1.82508 16.6139 2.49689 17.5318 3.35227ZM16.573 15.5991C17.3601 14.8668 17.9752 14.0153 18.4049 13.0701C18.8482 12.0936 19.0728 11.0585 19.0747 9.99029C19.0747 8.92204 18.8501 7.88698 18.4068 6.91052C17.9772 5.96334 17.3601 5.11382 16.575 4.38147C15.786 3.64521 14.8662 3.0691 13.8409 2.66484C12.7765 2.24691 11.6458 2.03404 10.4799 2.03404C9.31397 2.03404 8.18322 2.24691 7.12083 2.66484C6.09554 3.0691 5.1757 3.64716 4.38672 4.38147C3.59969 5.11382 2.98451 5.9653 2.55487 6.91052C2.11155 7.88698 1.88696 8.92204 1.88696 9.99029C1.88696 11.9803 2.68571 13.8864 4.13479 15.355C4.24415 15.4663 4.31446 15.6108 4.33204 15.7671L4.68747 18.7883L6.93139 17.513C7.1052 17.4134 7.31417 17.3939 7.50555 17.4583C8.45468 17.7825 9.45654 17.9465 10.4779 17.9465C11.6438 17.9465 12.7746 17.7356 13.8389 17.3158C14.8642 16.9115 15.784 16.3334 16.573 15.5991Z" fill="black"/>
</svg>
