<svg width="21" height="21" viewBox="0 0 21 21" fill="none" xmlns="http://www.w3.org/2000/svg">
<path fill-rule="evenodd" clip-rule="evenodd" d="M15.2219 9.27992C14.6282 9.27992 14.1478 9.76035 14.1478 10.354C14.1478 10.9477 14.6301 11.4282 15.2219 11.4282C15.8136 11.4282 16.294 10.9477 16.296 10.354C16.296 9.76035 15.8136 9.27992 15.2219 9.27992ZM6.62917 9.28003C6.03548 9.28003 5.55505 9.76045 5.55505 10.3541C5.55505 10.9478 6.03743 11.4283 6.62917 11.4283C7.22286 11.4283 7.70328 10.9478 7.70328 10.3541C7.70328 9.76045 7.22286 9.28003 6.62917 9.28003ZM9.85139 10.354C9.85139 9.76035 10.3318 9.27992 10.9255 9.27992C11.5172 9.27992 11.9996 9.76035 11.9996 10.354C11.9996 10.9477 11.5172 11.4282 10.9255 11.4282C10.3338 11.4282 9.85139 10.9477 9.85139 10.354Z" fill="#0071BC"/>
<path fill-rule="evenodd" clip-rule="evenodd" d="M17.9776 3.70432C18.9013 4.56361 19.6259 5.56547 20.1317 6.6806C20.657 7.84064 20.9246 9.07294 20.9226 10.3443C20.9226 11.6157 20.657 12.846 20.1297 14.0061C19.622 15.1231 18.8974 16.123 17.9756 16.9823C17.0578 17.8377 15.9895 18.5095 14.8002 18.9782C13.5718 19.4606 12.2672 19.7067 10.9236 19.7067C9.85533 19.7067 8.8066 19.5504 7.8028 19.2419L4.90659 20.8882C4.79918 20.9487 4.6781 20.98 4.55897 20.98C4.45156 20.98 4.3422 20.9546 4.2426 20.9038C4.03168 20.7984 3.88912 20.5933 3.86177 20.3589L3.41065 16.5195C1.80729 14.8087 0.926514 12.6253 0.926514 10.3423C0.926514 9.07294 1.19407 7.84064 1.71941 6.6806C2.22717 5.56352 2.95171 4.56361 3.87349 3.70432C4.79137 2.84894 5.85963 2.17713 7.04896 1.70842C8.27736 1.22605 9.58192 0.97998 10.9255 0.97998C12.2692 0.97998 13.5737 1.22605 14.8021 1.70842C15.9914 2.17713 17.0597 2.84894 17.9776 3.70432ZM17.0188 15.9512C17.8059 15.2188 18.421 14.3673 18.8507 13.4221C19.294 12.4457 19.5186 11.4106 19.5205 10.3423C19.5205 9.27409 19.2959 8.23903 18.8526 7.26257C18.423 6.31539 17.8059 5.46587 17.0208 4.73352C16.2318 3.99726 15.312 3.42115 14.2867 3.01689C13.2223 2.59896 12.0916 2.38609 10.9257 2.38609C9.75977 2.38609 8.62902 2.59896 7.56663 3.01689C6.54134 3.42115 5.6215 3.99921 4.83252 4.73352C4.04549 5.46587 3.43031 6.31735 3.00067 7.26257C2.55735 8.23903 2.33276 9.27409 2.33276 10.3423C2.33276 12.3324 3.13151 14.2384 4.58059 15.7071C4.68996 15.8184 4.76026 15.9629 4.77784 16.1191L5.13327 19.1403L7.37719 17.865C7.551 17.7654 7.75997 17.7459 7.95136 17.8104C8.90048 18.1346 9.90234 18.2986 10.9237 18.2986C12.0896 18.2986 13.2204 18.0877 14.2847 17.6678C15.31 17.2635 16.2298 16.6855 17.0188 15.9512Z" fill="#0071BC"/>
</svg>
