<svg width="23" height="16" viewBox="0 0 23 16" fill="none" xmlns="http://www.w3.org/2000/svg">
<path fill-rule="evenodd" clip-rule="evenodd" d="M8.15757 2.1733C7.43449 2.1733 6.74102 2.46054 6.22973 2.97183C5.71844 3.48314 5.43119 4.17659 5.43119 4.89969C5.43119 5.62276 5.71844 6.31623 6.22973 6.82752C6.74102 7.33881 7.43449 7.62607 8.15757 7.62607C8.88065 7.62607 9.57411 7.33881 10.0854 6.82752C10.5967 6.31623 10.884 5.62276 10.884 4.89969C10.884 4.17659 10.5967 3.48314 10.0854 2.97183C9.57411 2.46054 8.88065 2.1733 8.15757 2.1733ZM3.3864 4.89969C3.38631 4.10886 3.58278 3.33041 3.95816 2.63435C4.33355 1.9383 4.87605 1.34647 5.5369 0.912093C6.19775 0.477713 6.95622 0.214412 7.74406 0.145884C8.53191 0.0773432 9.32445 0.205715 10.0504 0.51944C10.7763 0.833178 11.4129 1.32243 11.9028 1.94321C12.3927 2.56398 12.7207 3.2968 12.8572 4.07576C12.9936 4.85473 12.9343 5.6554 12.6846 6.40575C12.4349 7.15611 12.0025 7.83263 11.4265 8.37446C12.5128 8.90144 13.4559 9.68267 14.1759 10.6518C14.896 11.621 15.3716 12.7496 15.5624 13.9417C15.605 14.2096 15.5393 14.4835 15.3798 14.7029C15.2204 14.9224 14.9804 15.0695 14.7125 15.112C14.4446 15.1546 14.1708 15.0889 13.9513 14.9294C13.7318 14.77 13.5847 14.5299 13.5422 14.2621C13.3359 12.9826 12.6807 11.8183 11.694 10.9779C10.7073 10.1375 9.45362 9.67602 8.15757 9.67602C6.86151 9.67602 5.60782 10.1375 4.62112 10.9779C3.63443 11.8183 2.97924 12.9826 2.77296 14.2621C2.75185 14.3947 2.70479 14.5219 2.63452 14.6364C2.56423 14.7509 2.47209 14.8504 2.36337 14.9292C2.25463 15.0082 2.13142 15.0647 2.00079 15.0959C1.87015 15.1273 1.73464 15.1325 1.60199 15.1113C1.46933 15.0902 1.34214 15.0432 1.22767 14.9728C1.1132 14.9026 1.0137 14.8105 0.934834 14.7017C0.855972 14.5931 0.799299 14.4698 0.768052 14.3391C0.736804 14.2085 0.731594 14.073 0.752718 13.9404C0.944021 12.7487 1.41983 11.6208 2.1398 10.652C2.85979 9.68335 3.80271 8.90256 4.88864 8.37582C4.41361 7.93011 4.03516 7.3916 3.77676 6.79366C3.51836 6.19571 3.38549 5.55107 3.3864 4.89969ZM15.6551 2.8549C15.384 2.8549 15.1239 2.9626 14.9322 3.15435C14.7404 3.34608 14.6327 3.60613 14.6327 3.87729C14.6327 4.14844 14.7404 4.40849 14.9322 4.60023C15.1239 4.79197 15.384 4.89969 15.6551 4.89969C16.1163 4.89971 16.564 5.05568 16.9255 5.34225C17.2869 5.62882 17.5408 6.02914 17.6459 6.47823C17.751 6.92732 17.7013 7.39878 17.5047 7.81601C17.3081 8.23326 16.9763 8.57178 16.563 8.7766C16.3926 8.86136 16.2492 8.99203 16.149 9.15386C16.0488 9.31571 15.9958 9.50231 15.9959 9.69266V10.1725C15.9957 10.4022 16.0727 10.6252 16.2146 10.8057C16.3565 10.9863 16.5551 11.1138 16.7784 11.1676C18.4142 11.5616 19.7256 12.8035 20.2164 14.4011C20.2552 14.5299 20.3193 14.6499 20.4046 14.7541C20.4901 14.8581 20.5952 14.9444 20.7141 15.0077C20.8328 15.071 20.963 15.1103 21.097 15.1232C21.231 15.1362 21.3662 15.1224 21.495 15.083C21.6237 15.0435 21.7434 14.979 21.847 14.8931C21.9508 14.8072 22.0365 14.7017 22.0993 14.5826C22.1622 14.4636 22.2009 14.3332 22.2132 14.1991C22.2256 14.0651 22.2113 13.9299 22.1712 13.8013C21.8983 12.9161 21.4481 12.0956 20.8482 11.3898C20.2483 10.6839 19.5111 10.1075 18.6814 9.69539C19.2143 9.10914 19.5656 8.38069 19.6922 7.5986C19.819 6.81651 19.7158 6.01445 19.3953 5.2899C19.0747 4.56535 18.5506 3.94951 17.8867 3.51723C17.2227 3.08495 16.4474 2.85484 15.6551 2.8549Z" fill="#595959"/>
</svg>
