<svg width="22" height="16" viewBox="0 0 22 16" fill="none" xmlns="http://www.w3.org/2000/svg">
<path fill-rule="evenodd" clip-rule="evenodd" d="M7.60337 2.10324C6.88029 2.10324 6.18682 2.39047 5.67553 2.90177C5.16424 3.41307 4.87699 4.10653 4.87699 4.82962C4.87699 5.55269 5.16424 6.24616 5.67553 6.75745C6.18682 7.26875 6.88029 7.556 7.60337 7.556C8.32645 7.556 9.01992 7.26875 9.53122 6.75745C10.0425 6.24616 10.3298 5.55269 10.3298 4.82962C10.3298 4.10653 10.0425 3.41307 9.53122 2.90177C9.01992 2.39047 8.32645 2.10324 7.60337 2.10324ZM2.8322 4.82962C2.83211 4.03879 3.02858 3.26034 3.40396 2.56428C3.77935 1.86823 4.32186 1.27641 4.9827 0.842025C5.64355 0.407644 6.40202 0.144344 7.18986 0.075816C7.97772 0.0072748 8.77025 0.135647 9.49617 0.449371C10.2221 0.76311 10.8587 1.25236 11.3486 1.87314C11.8385 2.49391 12.1665 3.22674 12.303 4.00569C12.4394 4.78466 12.3801 5.58533 12.1304 6.33568C11.8807 7.08604 11.4483 7.76256 10.8723 8.30439C11.9586 8.83137 12.9017 9.6126 13.6217 10.5818C14.3418 11.551 14.8174 12.6796 15.0082 13.8717C15.0508 14.1395 14.9851 14.4134 14.8256 14.6329C14.6662 14.8523 14.4262 14.9994 14.1583 15.042C13.8904 15.0845 13.6166 15.0188 13.3971 14.8593C13.1776 14.6999 13.0305 14.4599 12.988 14.192C12.7817 12.9125 12.1265 11.7482 11.1398 10.9078C10.1531 10.0675 8.89942 9.60595 7.60337 9.60595C6.30732 9.60595 5.05362 10.0675 4.06693 10.9078C3.08023 11.7482 2.42504 12.9125 2.21877 14.192C2.19765 14.3246 2.15059 14.4518 2.08032 14.5663C2.01003 14.6809 1.9179 14.7804 1.80917 14.8592C1.70043 14.9381 1.57722 14.9947 1.44659 15.0259C1.31595 15.0572 1.18044 15.0624 1.04779 15.0413C0.915135 15.0201 0.787943 14.9731 0.673473 14.9028C0.559003 14.8326 0.459497 14.7404 0.380635 14.6316C0.301773 14.523 0.2451 14.3998 0.213853 14.269C0.182605 14.1384 0.177395 14.0029 0.198519 13.8703C0.389821 12.6786 0.86563 11.5507 1.5856 10.582C2.30559 9.61328 3.24851 8.83249 4.33444 8.30575C3.85941 7.86004 3.48096 7.32153 3.22256 6.72359C2.96416 6.12564 2.83129 5.481 2.8322 4.82962ZM15.1009 2.78483C14.8298 2.78483 14.5697 2.89254 14.378 3.08428C14.1862 3.27602 14.0785 3.53606 14.0785 3.80722C14.0785 4.07838 14.1862 4.33842 14.378 4.53017C14.5697 4.7219 14.8298 4.82962 15.1009 4.82962C15.5621 4.82964 16.0098 4.98561 16.3713 5.27218C16.7327 5.55875 16.9866 5.95907 17.0917 6.40816C17.1968 6.85725 17.1471 7.32871 16.9505 7.74594C16.7539 8.16319 16.4221 8.50171 16.0088 8.70653C15.8384 8.79129 15.695 8.92196 15.5948 9.0838C15.4946 9.24565 15.4416 9.43224 15.4417 9.6226V10.1024C15.4415 10.3321 15.5185 10.5551 15.6604 10.7357C15.8023 10.9162 16.0009 11.0437 16.2242 11.0976C17.86 11.4915 19.1714 12.7334 19.6622 14.3311C19.701 14.4599 19.7651 14.5798 19.8504 14.684C19.9359 14.788 20.041 14.8743 20.1599 14.9377C20.2786 15.0009 20.4088 15.0402 20.5428 15.0531C20.6768 15.0661 20.812 15.0523 20.9408 15.0129C21.0695 14.9734 21.1892 14.9089 21.2928 14.823C21.3966 14.7372 21.4823 14.6316 21.5451 14.5125C21.608 14.3935 21.6467 14.2632 21.659 14.129C21.6714 13.995 21.6571 13.8598 21.617 13.7313C21.3441 12.846 20.8939 12.0255 20.294 11.3198C19.6941 10.6139 18.9569 10.0374 18.1272 9.62532C18.6601 9.03907 19.0114 8.31062 19.138 7.52853C19.2648 6.74644 19.1616 5.94438 18.8411 5.21983C18.5205 4.49528 17.9964 3.87945 17.3325 3.44716C16.6685 3.01488 15.8932 2.78478 15.1009 2.78483Z" fill="#0071BC"/>
</svg>
