<svg width="16" height="18" viewBox="0 0 16 18" fill="none" xmlns="http://www.w3.org/2000/svg">
<path fill-rule="evenodd" clip-rule="evenodd" d="M13.5887 0.884277C14.245 0.884277 14.8309 1.2749 15.0809 1.88037C15.3309 2.48779 15.1942 3.17725 14.7293 3.64209L9.87581 8.74951V16.4292C9.87581 16.7163 9.70198 16.9741 9.43636 17.0815C9.35042 17.1147 9.26058 17.1323 9.17268 17.1323C8.98518 17.1323 8.80159 17.0581 8.66683 16.9175L6.22151 14.3882C6.09456 14.2573 6.02425 14.0815 6.02425 13.8999V8.78271L0.692216 3.64014C0.229325 3.17529 0.0926062 2.48584 0.344559 1.88037C0.596513 1.2749 1.18245 0.884277 1.83675 0.884277H13.5887ZM8.67657 7.96045L13.7352 2.646C13.8172 2.56592 13.8055 2.47803 13.782 2.41943C13.7566 2.36084 13.7039 2.29053 13.5887 2.29053H1.83672C1.72149 2.29053 1.6668 2.36084 1.64336 2.41943C1.61993 2.47803 1.60625 2.56396 1.68828 2.646L7.22735 7.99365C7.35821 8.12451 7.43243 8.3042 7.43243 8.48975V13.6147L8.47149 14.7476V8.4585C8.47149 8.271 8.54375 8.09326 8.67657 7.96045Z" fill="white"/>
</svg>
