<svg width="21" height="21" viewBox="0 0 21 21" fill="none" xmlns="http://www.w3.org/2000/svg">
<path d="M20.2736 7.6705L13.9951 6.75803L11.1885 1.0681C11.1118 0.912312 10.9857 0.786199 10.8299 0.709542C10.4392 0.516662 9.96443 0.677395 9.76907 1.0681L6.96244 6.75803L0.683975 7.6705C0.510878 7.69523 0.352618 7.77683 0.23145 7.90047C0.0849655 8.05103 0.00424556 8.25359 0.00702761 8.46363C0.00980965 8.67368 0.095866 8.87402 0.246287 9.02065L4.78884 13.4495L3.71564 19.7032C3.69047 19.8487 3.70657 19.9983 3.76211 20.1351C3.81764 20.2719 3.9104 20.3904 4.02985 20.4771C4.14931 20.5639 4.29068 20.6154 4.43794 20.6259C4.58521 20.6364 4.73247 20.6055 4.86302 20.5365L10.4788 17.584L16.0945 20.5365C16.2478 20.6181 16.4259 20.6453 16.5965 20.6157C17.0268 20.5415 17.3161 20.1335 17.2419 19.7032L16.1687 13.4495L20.7113 9.02065C20.8349 8.89949 20.9165 8.74123 20.9412 8.56813C21.008 8.13539 20.7063 7.73479 20.2736 7.6705ZM14.2572 12.8263L15.1499 18.0266L10.4788 15.5736L5.80763 18.0291L6.70032 12.8288L2.92187 9.14429L8.14444 8.38514L10.4788 3.65466L12.8131 8.38514L18.0357 9.14429L14.2572 12.8263Z" fill="#595959"/>
</svg>
