<svg width="22" height="21" viewBox="0 0 22 21" fill="none" xmlns="http://www.w3.org/2000/svg">
<path d="M21.1282 7.34848L14.8498 6.43601L12.0431 0.746077C11.9665 0.59029 11.8404 0.464177 11.6846 0.38752C11.2939 0.194641 10.8191 0.355374 10.6237 0.746077L7.81711 6.43601L1.53865 7.34848C1.36555 7.37321 1.20729 7.45481 1.08613 7.57845C0.939641 7.72901 0.858921 7.93157 0.861703 8.14161C0.864485 8.35166 0.950541 8.552 1.10096 8.69863L5.64351 13.1274L4.57031 19.3812C4.54515 19.5266 4.56124 19.6763 4.61678 19.8131C4.67232 19.9498 4.76508 20.0683 4.88453 20.1551C5.00398 20.2419 5.14536 20.2934 5.29262 20.3039C5.43988 20.3144 5.58714 20.2834 5.7177 20.2145L11.3334 17.262L16.9492 20.2145C17.1025 20.2961 17.2806 20.3233 17.4512 20.2936C17.8814 20.2194 18.1708 19.8114 18.0966 19.3812L17.0234 13.1274L21.5659 8.69863C21.6896 8.57746 21.7712 8.4192 21.7959 8.24611C21.8627 7.81337 21.561 7.41277 21.1282 7.34848V7.34848ZM15.1119 12.5043L16.0046 17.7046L11.3334 15.2516L6.66231 17.7071L7.55499 12.5068L3.77654 8.82227L8.99911 8.06312L11.3334 3.33264L13.6678 8.06312L18.8904 8.82227L15.1119 12.5043Z" fill="#0071BC"/>
</svg>
