<svg width="12" height="16" viewBox="0 0 12 16" fill="none" xmlns="http://www.w3.org/2000/svg">
<path fill-rule="evenodd" clip-rule="evenodd" d="M10.8207 0.497559H1.68005C1.09705 0.497559 0.625366 0.969238 0.625366 1.55225V14.4429C0.625366 15.0259 1.09705 15.4976 1.68005 15.4976H10.8207C11.4037 15.4976 11.8754 15.0259 11.8754 14.4429V1.55225C11.8754 0.969238 11.4037 0.497559 10.8207 0.497559ZM10.8207 14.311H1.68005V10.7368C1.68005 10.7441 1.68591 10.7515 1.6947 10.7515H10.806C10.8134 10.7515 10.8207 10.7456 10.8207 10.7368V14.311ZM10.806 9.69678C10.8148 9.69678 10.8207 9.7041 10.8207 9.71143V6.13721C10.8207 6.146 10.8134 6.15186 10.806 6.15186H1.6947C1.68591 6.15186 1.68005 6.14453 1.68005 6.13721V9.71143C1.68005 9.70264 1.68738 9.69678 1.6947 9.69678H10.806ZM10.8207 5.11182C10.8207 5.10449 10.8148 5.09717 10.806 5.09717H1.6947C1.68738 5.09717 1.68005 5.10303 1.68005 5.11182V1.55225H10.8207V5.11182ZM3.45251 13.0513C3.16127 13.0513 2.92517 12.8152 2.92517 12.5239C2.92517 12.2327 3.16127 11.9966 3.45251 11.9966C3.74376 11.9966 3.97986 12.2327 3.97986 12.5239C3.97986 12.8152 3.74376 13.0513 3.45251 13.0513ZM2.92517 7.92432C2.92517 8.21556 3.16127 8.45166 3.45251 8.45166C3.74376 8.45166 3.97986 8.21556 3.97986 7.92432C3.97986 7.63307 3.74376 7.39697 3.45251 7.39697C3.16127 7.39697 2.92517 7.63307 2.92517 7.92432ZM3.45251 3.85205C3.16127 3.85205 2.92517 3.61595 2.92517 3.32471C2.92517 3.03346 3.16127 2.79736 3.45251 2.79736C3.74376 2.79736 3.97986 3.03346 3.97986 3.32471C3.97986 3.61595 3.74376 3.85205 3.45251 3.85205Z" fill="white"/>
</svg>
