<svg width="23" height="21" viewBox="0 0 23 21" fill="none" xmlns="http://www.w3.org/2000/svg">
<path d="M21.1263 15.2719C20.0367 14.6412 18.7087 14.8104 17.814 15.6L16.4552 14.813V10.9238C16.4552 10.5213 16.2399 10.147 15.8912 9.94705L12.4046 7.93965V6.2194C13.5377 5.83484 14.353 4.76321 14.353 3.49929C14.353 1.91235 13.0686 0.62793 11.4816 0.62793C9.89467 0.62793 8.61025 1.91235 8.61025 3.49929C8.61025 4.76321 9.42551 5.83484 10.5587 6.2194V7.93965L7.07202 9.94705C6.72335 10.147 6.508 10.5213 6.508 10.9238V14.8104L5.14923 15.5975C4.25449 14.8079 2.92392 14.6386 1.8369 15.2693C0.465315 16.0641 -0.0012815 17.8177 0.78578 19.1892C1.57541 20.5608 3.3213 21.0326 4.68776 20.2404C5.77734 19.6097 6.29521 18.3689 6.06191 17.1947L7.31044 16.4691L10.915 18.5458C11.0894 18.6457 11.2842 18.697 11.479 18.697C11.6739 18.697 11.8687 18.6457 12.0431 18.5458L15.6451 16.4717L16.8936 17.1972C16.6603 18.3689 17.1808 19.6123 18.2678 20.2429C19.6342 21.0351 21.3827 20.566 22.1698 19.1918C22.9594 17.8177 22.4928 16.0641 21.1263 15.2719V15.2719ZM3.8725 18.8201C3.73325 18.9007 3.57942 18.953 3.41987 18.974C3.26033 18.995 3.09821 18.9842 2.94285 18.9422C2.78749 18.9003 2.64196 18.8281 2.51463 18.7296C2.38731 18.6312 2.2807 18.5086 2.20095 18.3689C1.86254 17.7818 2.06251 17.028 2.6496 16.6896C2.78885 16.609 2.94268 16.5567 3.10223 16.5357C3.26177 16.5147 3.42389 16.5255 3.57925 16.5675C3.73461 16.6094 3.88014 16.6816 4.00747 16.7801C4.13479 16.8785 4.2414 17.0011 4.32115 17.1408C4.65956 17.7279 4.45959 18.4817 3.8725 18.8201ZM10.2485 3.49929C10.255 3.17727 10.3876 2.87066 10.6176 2.64524C10.8477 2.41983 11.157 2.29357 11.479 2.29357C11.8011 2.29357 12.1104 2.41983 12.3405 2.64524C12.5705 2.87066 12.7031 3.17727 12.7096 3.49929C12.7031 3.82132 12.5705 4.12793 12.3405 4.35335C12.1104 4.57876 11.8011 4.70501 11.479 4.70501C11.157 4.70501 10.8477 4.57876 10.6176 4.35335C10.3876 4.12793 10.255 3.82132 10.2485 3.49929V3.49929ZM14.6068 14.9386L11.479 16.7409L8.35131 14.9386V11.3391L11.479 9.53685L14.6068 11.3391V14.9386V14.9386ZM20.7571 18.3714C20.4187 18.9585 19.6701 19.161 19.0856 18.8226C18.5011 18.4842 18.2985 17.7305 18.637 17.1434C18.9754 16.5563 19.724 16.3538 20.3085 16.6922C20.8956 17.0306 21.0956 17.7818 20.7571 18.3714Z" fill="#595959"/>
</svg>
