<svg width="23" height="21" viewBox="0 0 23 21" fill="none" xmlns="http://www.w3.org/2000/svg">
<path d="M21.1555 14.7672C20.0659 14.1366 18.7379 14.3058 17.8432 15.0954L16.4844 14.3083V10.4192C16.4844 10.0167 16.269 9.64238 15.9204 9.44241L12.4337 7.43502V5.71476C13.5669 5.3302 14.3822 4.25857 14.3822 2.99466C14.3822 1.40771 13.0977 0.123291 11.5108 0.123291C9.92385 0.123291 8.63942 1.40771 8.63942 2.99466C8.63942 4.25857 9.45469 5.3302 10.5878 5.71476V7.43502L7.10119 9.44241C6.75253 9.64238 6.53717 10.0167 6.53717 10.4192V14.3058L5.1784 15.0928C4.28367 14.3032 2.9531 14.134 1.86608 14.7647C0.49449 15.5594 0.0278933 17.313 0.814955 18.6846C1.60458 20.0562 3.35047 20.5279 4.71693 19.7357C5.80651 19.1051 6.32439 17.8642 6.09109 16.69L7.33962 15.9645L10.9442 18.0411C11.1185 18.1411 11.3134 18.1924 11.5082 18.1924C11.7031 18.1924 11.8979 18.1411 12.0722 18.0411L15.6743 15.9671L16.9228 16.6926C16.6895 17.8642 17.2099 19.1076 18.297 19.7383C19.6634 20.5305 21.4119 20.0613 22.1989 18.6872C22.9886 17.313 22.522 15.5594 21.1555 14.7672V14.7672ZM3.90167 18.3154C3.76242 18.3961 3.6086 18.4484 3.44905 18.4694C3.2895 18.4903 3.12738 18.4795 2.97202 18.4376C2.81666 18.3957 2.67113 18.3234 2.54381 18.225C2.41648 18.1266 2.30988 18.004 2.23013 17.8642C1.89172 17.2771 2.09169 16.5234 2.67878 16.185C2.81803 16.1043 2.97185 16.052 3.1314 16.0311C3.29095 16.0101 3.45307 16.0209 3.60843 16.0628C3.76379 16.1048 3.90932 16.177 4.03664 16.2754C4.16397 16.3738 4.27057 16.4964 4.35032 16.6362C4.68873 17.2233 4.48876 17.977 3.90167 18.3154ZM10.2776 2.99466C10.2842 2.67263 10.4168 2.36602 10.6468 2.1406C10.8769 1.91519 11.1861 1.78893 11.5082 1.78893C11.8303 1.78893 12.1396 1.91519 12.3696 2.1406C12.5997 2.36602 12.7322 2.67263 12.7388 2.99466C12.7322 3.31668 12.5997 3.62329 12.3696 3.84871C12.1396 4.07412 11.8303 4.20038 11.5082 4.20038C11.1861 4.20038 10.8769 4.07412 10.6468 3.84871C10.4168 3.62329 10.2842 3.31668 10.2776 2.99466V2.99466ZM14.636 14.434L11.5082 16.2363L8.38049 14.434V10.8345L11.5082 9.03221L14.636 10.8345V14.434V14.434ZM20.7863 17.8668C20.4479 18.4539 19.6993 18.6564 19.1148 18.318C18.5302 17.9796 18.3277 17.2259 18.6661 16.6388C19.0045 16.0517 19.7531 15.8491 20.3377 16.1875C20.9248 16.526 21.1247 17.2771 20.7863 17.8668Z" fill="#0071BC"/>
</svg>
