<svg width="21" height="21" viewBox="0 0 21 21" fill="none" xmlns="http://www.w3.org/2000/svg">
<path fill-rule="evenodd" clip-rule="evenodd" d="M15.6527 14.6659L20.2443 19.2552C20.5568 19.5699 20.5568 20.0788 20.2465 20.3936C20.088 20.5498 19.8849 20.6279 19.6773 20.6279C19.4697 20.6279 19.2644 20.5498 19.1081 20.3936L14.5166 15.802C13.0322 17.0319 11.1282 17.7708 9.05007 17.7708C4.31569 17.7708 0.478638 13.9337 0.478638 9.19936C0.478638 4.46498 4.31569 0.62793 9.05007 0.62793C13.7844 0.62793 17.6215 4.46498 17.6215 9.19936C17.6215 11.2775 16.8827 13.1815 15.6527 14.6659ZM9.05007 16.1636C9.99203 16.1636 10.9027 15.9806 11.7599 15.6168C12.5902 15.2663 13.3335 14.7641 13.9742 14.1235C14.6148 13.4828 15.117 12.7373 15.4675 11.9092C15.8313 11.052 16.0144 10.1413 16.0144 9.19936C16.0144 8.25739 15.8313 7.34668 15.4675 6.48954C15.117 5.66141 14.6148 4.91588 13.9742 4.27525C13.3335 3.63463 12.588 3.13239 11.7599 2.78195C10.9027 2.41811 9.99203 2.23507 9.05007 2.23507C8.1081 2.23507 7.19739 2.41811 6.34024 2.78195C5.51212 3.13239 4.76658 3.63463 4.12596 4.27525C3.48533 4.91588 2.9831 5.66141 2.63266 6.48954C2.26882 7.34668 2.08578 8.25739 2.08578 9.19936C2.08578 10.1413 2.26882 11.052 2.63266 11.9092C2.9831 12.7373 3.48533 13.4828 4.12596 14.1235C4.76658 14.7641 5.51212 15.2663 6.34024 15.6168C7.19739 15.9806 8.1081 16.1636 9.05007 16.1636Z" fill="black"/>
</svg>
