<svg width="21" height="21" viewBox="0 0 21 21" fill="none" xmlns="http://www.w3.org/2000/svg">
<path fill-rule="evenodd" clip-rule="evenodd" d="M15.5074 14.1175L20.0989 18.7068C20.4114 19.0216 20.4114 19.5305 20.1011 19.8452C19.9426 20.0015 19.7395 20.0796 19.5319 20.0796C19.3243 20.0796 19.119 20.0015 18.9627 19.8452L14.3712 15.2537C12.8868 16.4836 10.9828 17.2224 8.90468 17.2224C4.17031 17.2224 0.333252 13.3854 0.333252 8.65102C0.333252 3.91664 4.17031 0.0795898 8.90468 0.0795898C13.6391 0.0795898 17.4761 3.91664 17.4761 8.65102C17.4761 10.7291 16.7373 12.6332 15.5074 14.1175ZM8.90468 15.6153C9.84664 15.6153 10.7574 15.4323 11.6145 15.0684C12.4449 14.718 13.1882 14.2158 13.8288 13.5751C14.4694 12.9345 14.9716 12.189 15.3221 11.3608C15.6859 10.5037 15.869 9.59298 15.869 8.65102C15.869 7.70905 15.6859 6.79834 15.3221 5.9412C14.9716 5.11307 14.4694 4.36754 13.8288 3.72691C13.1882 3.08629 12.4426 2.58405 11.6145 2.23361C10.7574 1.86977 9.84664 1.68673 8.90468 1.68673C7.96272 1.68673 7.052 1.86977 6.19486 2.23361C5.36673 2.58405 4.6212 3.08629 3.98057 3.72691C3.33995 4.36754 2.83772 5.11307 2.48727 5.9412C2.12343 6.79834 1.94039 7.70905 1.94039 8.65102C1.94039 9.59298 2.12343 10.5037 2.48727 11.3608C2.83772 12.189 3.33995 12.9345 3.98057 13.5751C4.6212 14.2158 5.36673 14.718 6.19486 15.0684C7.052 15.4323 7.96272 15.6153 8.90468 15.6153Z" fill="#0071BC"/>
</svg>
