<svg width="22" height="17" viewBox="0 0 22 17" fill="none" xmlns="http://www.w3.org/2000/svg">
<path d="M20.8176 8.34897V8.34663L20.7871 8.29976C20.3746 7.68101 19.8636 7.16069 19.266 6.75054C19.2191 6.06851 19.0644 5.41929 18.8066 4.81694C18.4926 4.08101 18.0215 3.40132 17.4051 2.80132C16.7957 2.20601 16.1043 1.75132 15.3519 1.44663C14.609 1.14429 13.7933 0.991943 12.9285 0.991943C11.6301 0.991943 10.4371 1.35054 9.3824 2.05601C8.78709 2.45444 8.27146 2.93257 7.85193 3.47866C7.53552 3.39897 7.20037 3.35679 6.85349 3.35679C6.33083 3.35679 5.82927 3.45054 5.36521 3.63804C4.90115 3.82554 4.47458 4.10679 4.09724 4.47007C3.71521 4.84507 3.42458 5.2646 3.23474 5.71929C3.03787 6.18335 2.93708 6.68491 2.93708 7.20991C2.93708 7.35522 2.94412 7.49819 2.96052 7.63882C2.46365 7.93647 2.02302 8.32085 1.64568 8.78022C0.888647 9.69429 0.504272 10.7583 0.504272 11.9443C0.504272 12.6333 0.635522 13.2873 0.890991 13.8919C1.14412 14.4896 1.52615 15.0404 2.02537 15.5232C2.52224 16.0037 3.08005 16.3716 3.6824 16.6154C4.28708 16.8615 4.94568 16.9857 5.63943 16.9857H15.966C16.7394 16.9857 17.4754 16.8474 18.1551 16.5732C18.8347 16.2966 19.4605 15.8841 20.0113 15.3474C20.5644 14.8083 20.991 14.1943 21.2769 13.524C21.5629 12.849 21.7082 12.1177 21.7082 11.3537C21.7105 10.2709 21.4105 9.25835 20.8176 8.34897Z" fill="white"/>
</svg>
