<svg width="16" height="16" viewBox="0 0 16 16" fill="none" xmlns="http://www.w3.org/2000/svg">
<path d="M5.52307 7.54102C5.52307 7.47198 5.57904 7.41602 5.64807 7.41602C5.71711 7.41602 5.77307 7.47198 5.77307 7.54102C5.77307 7.61005 5.71711 7.66602 5.64807 7.66602C5.57904 7.66602 5.52307 7.61005 5.52307 7.54102Z" fill="#0071BC" stroke="#0071BC"/>
<path d="M7.39807 7.54102C7.39807 7.47198 7.45404 7.41602 7.52307 7.41602C7.59211 7.41602 7.64807 7.47198 7.64807 7.54102C7.64807 7.61005 7.59211 7.66602 7.52307 7.66602C7.45404 7.66602 7.39807 7.61005 7.39807 7.54102Z" fill="#0071BC" stroke="#0071BC"/>
<path d="M9.27307 7.54102C9.27307 7.47198 9.32904 7.41602 9.39807 7.41602C9.46711 7.41602 9.52307 7.47198 9.52307 7.54102C9.52307 7.61005 9.46711 7.66602 9.39807 7.66602C9.32904 7.66602 9.27307 7.61005 9.27307 7.54102Z" fill="#0071BC" stroke="#0071BC"/>
<path d="M3.30432 9.65039V6.25977C3.30432 5.1552 4.19975 4.25977 5.30432 4.25977H9.74182C10.8464 4.25977 11.7418 5.1552 11.7418 6.25977V8.50977C11.7418 9.61434 10.8464 10.5098 9.74182 10.5098H8.27454C7.7901 10.5098 7.32212 10.6856 6.95753 11.0046L5.02307 12.6973V11.3691C5.02307 10.8945 4.63832 10.5098 4.1637 10.5098C3.68908 10.5098 3.30432 10.125 3.30432 9.65039Z" stroke="#0071BC" stroke-linejoin="round"/>
</svg>
