<svg width="11" height="12" viewBox="0 0 11 12" fill="none" xmlns="http://www.w3.org/2000/svg">
<path fill-rule="evenodd" clip-rule="evenodd" d="M9.9255 1.40557C8.99738 0.477441 7.48917 0.477441 6.56105 1.40557L4.46456 3.50205C4.29933 3.66729 4.29933 3.93447 4.46456 4.09854C4.6298 4.26377 4.89699 4.26377 5.06105 4.09854L7.15753 2.00205C7.75636 1.40322 8.73019 1.40322 9.32902 2.00205C9.61847 2.2915 9.77902 2.67705 9.77902 3.08721C9.77902 3.49736 9.61964 3.88291 9.32902 4.17236L7.23253 6.26885C7.0673 6.43408 7.0673 6.70127 7.23253 6.86533C7.31456 6.94736 7.42238 6.98838 7.53136 6.98838C7.64034 6.98838 7.74699 6.94736 7.83019 6.86533L9.92667 4.76885C10.8536 3.84189 10.8536 2.33252 9.9255 1.40557ZM5.7337 7.76779L3.63839 9.86427C3.34894 10.1537 2.96339 10.3143 2.55323 10.3143C2.14308 10.3143 1.75753 10.1549 1.46808 9.86427C1.17863 9.57365 1.01691 9.18927 1.01691 8.77912C1.01691 8.36896 1.17628 7.98341 1.46691 7.69396L3.56339 5.59748C3.72863 5.43224 3.72863 5.16505 3.56339 5.00099C3.39816 4.83576 3.13097 4.83576 2.96691 5.00099L0.870422 7.0963C0.420422 7.5463 0.173157 8.14396 0.173157 8.77912C0.173157 9.41427 0.420422 10.0119 0.870422 10.4608C1.33448 10.9248 1.94386 11.1569 2.55206 11.1569C3.16144 11.1569 3.77081 10.9248 4.2337 10.4608L6.33019 8.36427C6.49542 8.19904 6.49542 7.93185 6.33019 7.76779C6.16495 7.60373 5.89894 7.60373 5.7337 7.76779ZM6.28216 5.66779L5.08685 6.8631C5.00365 6.94513 4.89818 6.98615 4.7892 6.98615C4.68021 6.98615 4.5724 6.94513 4.49037 6.8631C4.32513 6.69904 4.32513 6.43185 4.49037 6.26662L5.68568 5.0713C5.84974 4.90607 6.11693 4.90607 6.28216 5.0713C6.4474 5.23537 6.4474 5.50255 6.28216 5.66779Z" fill="#0071BC"/>
</svg>
